<?xml version="1.0" encoding="UTF-8" standalone="no"?>
<!DOCTYPE svg PUBLIC "-//W3C//DTD SVG 1.1//EN" "http://www.w3.org/Graphics/SVG/1.1/DTD/svg11.dtd">
<svg xmlns="http://www.w3.org/2000/svg" xmlns:xlink="http://www.w3.org/1999/xlink" version="1.1" width="1077.01pt" height="267.616pt" viewBox="0 0 1077.01 267.616">
<g enable-background="new">
<g>
<g id="Layer-1" data-name="Layer 1">
<clipPath id="cp17">
<path transform="matrix(1,0,0,-1,0,267.616)" d="M 0 267.616 L 1077.012 267.616 L 1077.012 0 L 0 0 Z "/>
</clipPath>
<g clip-path="url(#cp17)">
<g opacity=".75">
<clipPath id="cp18">
<path transform="matrix(1,0,0,-1,0,267.616)" d="M 656.727 55.0786 L 762.37 55.0786 L 762.37 212.086 L 656.727 212.086 Z "/>
</clipPath>
<g clip-path="url(#cp18)">
<path transform="matrix(1,0,0,-1,683.6428,82.445499)" d="M 0 0 L 0 -38.13 L 71.976 -38.13 L 71.976 -65.046 L 0 -65.046 L 0 -103.176 L 78.728 -103.176 L 78.728 -130.092 L -26.916 -130.092 L -26.916 26.916 L 78.728 26.916 L 78.728 0 Z " fill="#0075ad"/>
</g>
</g>
<g opacity=".75">
<clipPath id="cp19">
<path transform="matrix(1,0,0,-1,0,267.616)" d="M 774.707 52.1631 L 887.527 52.1631 L 887.527 215.451 L 774.707 215.451 Z "/>
</clipPath>
<g clip-path="url(#cp19)">
<path transform="matrix(1,0,0,-1,887.5276,167.678)" d="M 0 0 C 0 -7.328 -1.2 -13.945 -3.59 -19.851 C -5.984 -25.759 -9.386 -30.768 -13.794 -34.878 C -18.207 -38.992 -23.551 -42.168 -29.832 -44.411 C -36.112 -46.654 -43.144 -47.775 -50.917 -47.775 C -63.329 -47.775 -74.394 -45.791 -84.111 -41.831 C -93.833 -37.871 -101.831 -33.347 -108.111 -28.261 L -89.495 -9.646 C -84.561 -14.131 -79.031 -17.572 -72.896 -19.962 C -69.16 -21.459 -65.646 -22.43 -62.356 -22.879 C -59.067 -23.327 -56.377 -23.551 -54.279 -23.551 C -50.393 -23.551 -46.845 -23.067 -43.626 -22.093 C -40.413 -21.123 -37.609 -19.815 -35.215 -18.168 C -30.133 -14.433 -27.588 -9.498 -27.588 -3.365 C -27.588 .371 -28.935 3.736 -31.628 6.729 C -33.723 9.119 -36.413 11.064 -39.702 12.561 C -42.393 14.053 -45.234 15.252 -48.224 16.149 C -51.218 17.046 -53.908 17.866 -56.298 18.616 C -57.049 18.914 -57.724 19.101 -58.319 19.177 C -58.917 19.251 -59.438 19.437 -59.888 19.737 C -60.189 19.737 -60.639 19.885 -61.234 20.187 C -64.375 21.084 -68.898 22.654 -74.804 24.896 C -80.713 27.14 -86.579 30.203 -92.41 34.093 C -106.019 43.212 -112.821 54.427 -112.821 67.737 C -112.821 76.559 -111.291 83.999 -108.223 90.055 C -105.161 96.11 -101.159 101.045 -96.225 104.858 C -91.288 108.671 -85.794 111.398 -79.738 113.044 C -73.682 114.689 -67.737 115.513 -61.906 115.513 C -51.142 115.513 -42.096 114.241 -34.766 111.699 C -27.442 109.155 -21.611 106.615 -17.272 104.073 C -15.029 102.728 -13.122 101.417 -11.553 100.148 C -9.981 98.876 -8.601 97.716 -7.402 96.671 L -26.469 77.382 C -30.506 81.419 -34.619 84.482 -38.805 86.578 C -45.084 89.568 -51.665 91.063 -58.542 91.063 C -61.535 91.063 -64.525 90.689 -67.515 89.942 C -70.507 89.192 -73.121 88.222 -75.364 87.026 C -81.946 82.989 -85.232 77.68 -85.232 71.102 C -85.232 67.064 -83.889 63.623 -81.195 60.784 C -79.256 58.542 -76.563 56.523 -73.121 54.729 C -70.282 53.232 -67.29 52.036 -64.15 51.14 C -61.01 50.242 -58.094 49.419 -55.401 48.672 L -52.711 47.999 C -51.964 47.698 -50.546 47.249 -48.448 46.653 C -46.355 46.055 -43.89 45.156 -41.046 43.962 C -38.209 42.764 -35.104 41.345 -31.739 39.7 C -28.374 38.054 -25.048 36.111 -21.757 33.869 C -7.256 24.298 0 13.009 0 0 " fill="#0075ad"/>
</g>
</g>
<g opacity=".75">
<clipPath id="cp20">
<path transform="matrix(1,0,0,-1,0,267.616)" d="M 900.983 54.6302 L 1025.69 54.6302 L 1025.69 211.862 L 900.983 211.862 Z "/>
</clipPath>
<g clip-path="url(#cp20)">
<path transform="matrix(1,0,0,-1,987.5627,212.9856)" d="M 0 0 L -59.663 59.663 L -59.663 .448 L -86.579 .448 L -86.579 157.232 L -59.663 157.232 L -59.663 97.792 L -.45 157.007 L 37.681 157.007 L -40.597 78.729 L 38.13 0 Z " fill="#0075ad"/>
</g>
</g>
<g opacity=".75">
<clipPath id="cp21">
<path transform="matrix(1,0,0,-1,0,267.616)" d="M 500.018 55.0786 L 643.271 55.0786 L 643.271 212.086 L 500.018 212.086 Z "/>
</clipPath>
<g clip-path="url(#cp21)">
<path transform="matrix(1,0,0,-1,637.1018,103.529499)" d="M 0 0 C -4.113 9.567 -9.722 17.905 -16.823 25.009 C -23.926 32.109 -32.263 37.716 -41.832 41.831 C -51.403 45.942 -61.568 48 -72.335 48 L -136.373 48 C -131.3 44.601 -126.588 40.741 -122.285 36.438 C -117.64 31.78 -113.522 26.639 -109.926 21.084 L -72.335 21.084 C -65.459 21.084 -58.877 19.772 -52.597 17.158 C -46.316 14.541 -40.71 10.84 -35.775 6.057 C -30.99 1.122 -27.291 -4.486 -24.673 -10.766 C -22.059 -17.046 -20.746 -23.628 -20.746 -30.504 C -20.746 -37.534 -22.059 -44.151 -24.673 -50.354 C -27.291 -56.562 -30.99 -62.13 -35.775 -67.064 C -40.71 -71.852 -46.316 -75.553 -52.597 -78.167 C -58.877 -80.784 -65.459 -82.092 -72.335 -82.092 L -110.207 -82.092 C -110.295 -82.226 -110.378 -82.363 -110.466 -82.496 C -113.721 -87.413 -117.412 -91.981 -121.516 -96.185 C -121.775 -96.451 -122.021 -96.729 -122.285 -96.992 C -126.786 -101.493 -131.742 -105.498 -137.083 -109.008 L -126.751 -109.008 L -110.466 -109.008 L -72.335 -109.008 C -61.568 -109.008 -51.403 -106.954 -41.832 -102.84 C -32.263 -98.729 -23.926 -93.121 -16.823 -86.018 C -9.722 -78.917 -4.113 -70.579 0 -61.008 C 4.111 -51.44 6.17 -41.271 6.17 -30.504 C 6.17 -19.738 4.111 -9.571 0 0 " fill="#0075ad"/>
</g>
</g>
<path transform="matrix(1,0,0,-1,526.636,186.0256)" d="M 0 0 C .088 .133 .171 .271 .259 .404 L 0 .404 Z " fill="#0075ad"/>
<path transform="matrix(1,0,0,-1,448.3763,109.0842)" d="M 0 0 C -13.647 0 -24.711 -11.063 -24.711 -24.711 C -24.711 -38.358 -13.647 -49.422 0 -49.422 C 13.646 -49.422 24.71 -38.358 24.71 -24.711 C 24.71 -11.063 13.646 0 0 0 M -96.503 -103.451 L -123.418 -103.451 L -123.418 53.333 L -96.503 53.333 Z M -134.632 -82.367 C -142.111 -89.846 -150.781 -95.713 -160.65 -99.975 C -170.52 -104.235 -181.139 -106.366 -192.501 -106.366 C -203.715 -106.366 -214.296 -104.235 -224.238 -99.975 C -234.184 -95.713 -242.855 -89.881 -250.256 -82.479 C -257.658 -75.077 -263.489 -66.407 -267.752 -56.462 C -272.014 -46.518 -274.145 -35.938 -274.145 -24.723 C -274.145 -13.508 -272.014 -2.932 -267.752 7.015 C -263.489 16.957 -257.658 25.632 -250.256 33.033 C -242.855 40.436 -234.184 46.266 -224.238 50.528 C -214.296 54.79 -203.715 56.921 -192.501 56.921 C -181.139 56.921 -170.52 54.79 -160.65 50.528 C -150.781 46.266 -142.111 40.396 -134.632 32.921 L -153.696 13.856 C -158.933 19.089 -164.838 23.088 -171.417 25.855 C -177.998 28.62 -185.025 30.005 -192.501 30.005 C -199.829 30.005 -206.781 28.62 -213.359 25.855 C -219.941 23.088 -225.847 19.089 -231.08 13.856 C -236.315 8.62 -240.313 2.715 -243.079 -3.863 C -245.849 -10.445 -247.229 -17.397 -247.229 -24.723 C -247.229 -32.051 -245.849 -39.043 -243.079 -45.694 C -240.313 -52.35 -236.315 -58.294 -231.08 -63.526 C -225.847 -68.762 -219.941 -72.723 -213.359 -75.414 C -206.781 -78.105 -199.829 -79.451 -192.501 -79.451 C -185.025 -79.451 -177.998 -78.105 -171.417 -75.414 C -164.838 -72.723 -158.933 -68.762 -153.696 -63.526 Z M -284.236 -58.592 C -284.236 -65.919 -285.435 -72.537 -287.825 -78.442 C -290.218 -84.351 -293.621 -89.359 -298.03 -93.47 C -302.443 -97.584 -307.787 -100.759 -314.067 -103.003 C -320.348 -105.246 -327.378 -106.366 -335.15 -106.366 C -347.564 -106.366 -358.629 -104.383 -368.348 -100.423 C -378.069 -96.462 -386.066 -91.938 -392.347 -86.853 L -373.729 -68.237 C -368.796 -72.723 -363.266 -76.164 -357.133 -78.554 C -353.396 -80.051 -349.881 -81.021 -346.59 -81.47 C -343.303 -81.919 -340.611 -82.143 -338.516 -82.143 C -334.629 -82.143 -331.078 -81.659 -327.862 -80.685 C -324.647 -79.715 -321.845 -78.407 -319.45 -76.76 C -314.369 -73.023 -311.824 -68.09 -311.824 -61.956 C -311.824 -58.221 -313.17 -54.855 -315.861 -51.862 C -317.958 -49.473 -320.649 -47.527 -323.936 -46.031 C -326.628 -44.539 -329.471 -43.34 -332.46 -42.442 C -335.453 -41.546 -338.144 -40.726 -340.534 -39.976 C -341.284 -39.678 -341.957 -39.491 -342.553 -39.415 C -343.152 -39.341 -343.675 -39.155 -344.123 -38.854 C -344.424 -38.854 -344.873 -38.707 -345.469 -38.405 C -348.608 -37.508 -353.134 -35.938 -359.039 -33.695 C -364.947 -31.451 -370.814 -28.389 -376.646 -24.499 C -390.255 -15.379 -397.057 -4.165 -397.057 9.146 C -397.057 17.967 -395.525 25.407 -392.459 31.463 C -389.396 37.519 -385.394 42.454 -380.459 46.266 C -375.524 50.08 -370.029 52.807 -363.973 54.453 C -357.917 56.097 -351.974 56.921 -346.142 56.921 C -335.375 56.921 -326.33 55.649 -319.002 53.108 C -311.677 50.563 -305.845 48.023 -301.507 45.482 C -299.264 44.136 -297.357 42.825 -295.787 41.557 C -294.217 40.285 -292.837 39.125 -291.638 38.08 L -310.703 18.791 C -314.74 22.828 -318.854 25.891 -323.039 27.986 C -329.319 30.977 -335.901 32.473 -342.777 32.473 C -345.771 32.473 -348.759 32.098 -351.749 31.351 C -354.742 30.601 -357.356 29.63 -359.6 28.435 C -366.182 24.397 -369.469 19.089 -369.469 12.51 C -369.469 8.473 -368.122 5.031 -365.432 2.192 C -363.489 -.05 -360.798 -2.068 -357.356 -3.863 C -354.519 -5.359 -351.525 -6.556 -348.385 -7.452 C -345.245 -8.35 -342.329 -9.173 -339.638 -9.919 L -336.945 -10.593 C -336.199 -10.894 -334.779 -11.342 -332.684 -11.938 C -330.592 -12.537 -328.125 -13.435 -325.282 -14.63 C -322.443 -15.828 -319.338 -17.247 -315.974 -18.892 C -312.609 -20.538 -309.283 -22.48 -305.992 -24.723 C -291.49 -34.294 -284.236 -45.583 -284.236 -58.592 M -.28 30.005 C -7.608 30.005 -14.563 28.62 -21.14 25.855 C -27.722 23.088 -33.627 19.089 -38.859 13.856 C -44.095 8.62 -48.094 2.715 -50.858 -3.863 C -53.628 -10.445 -55.008 -17.397 -55.008 -24.723 C -55.008 -32.051 -53.628 -39.043 -50.858 -45.694 C -48.094 -52.35 -44.095 -58.294 -38.859 -63.526 C -33.627 -68.762 -27.722 -72.723 -21.14 -75.414 C -14.563 -78.105 -7.608 -79.451 -.28 -79.451 C 7.044 -79.451 14.036 -78.105 20.691 -75.414 C 27.343 -72.723 33.287 -68.762 38.523 -63.526 C 43.756 -58.294 47.72 -52.35 50.41 -45.694 C 53.102 -39.043 54.448 -32.051 54.448 -24.723 C 54.448 -17.397 53.102 -10.445 50.41 -3.863 C 47.72 2.715 43.756 8.62 38.523 13.856 C 33.287 19.089 27.343 23.088 20.691 25.855 C 14.036 28.62 7.044 30.005 -.28 30.005 M -.28 56.921 C 10.935 56.921 21.512 54.79 31.457 50.528 C 41.4 46.266 50.074 40.436 57.477 33.033 C 64.878 25.632 70.709 16.957 74.973 7.015 C 79.232 -2.932 81.362 -13.508 81.362 -24.723 C 81.362 -35.938 79.232 -46.518 74.973 -56.462 C 70.709 -66.407 64.878 -75.077 57.477 -82.479 C 50.074 -89.881 41.4 -95.713 31.457 -99.975 C 21.512 -104.235 10.935 -106.366 -.28 -106.366 C -11.495 -106.366 -22.076 -104.235 -32.019 -99.975 C -41.965 -95.713 -50.635 -89.881 -58.036 -82.479 C -65.438 -75.077 -71.271 -66.407 -75.531 -56.462 C -79.793 -46.518 -81.924 -35.938 -81.924 -24.723 C -81.924 -13.508 -79.793 -2.932 -75.531 7.015 C -71.271 16.957 -65.438 25.632 -58.036 33.033 C -50.635 40.436 -41.965 46.266 -32.019 50.528 C -22.076 54.79 -11.495 56.921 -.28 56.921 " fill="#0075ad"/>
</g>
</g>
</g>
</g>
</svg>
